<!DOCTYPE svg PUBLIC "-//W3C//DTD SVG 1.1//EN" "http://www.w3.org/Graphics/SVG/1.1/DTD/svg11.dtd">
<svg xmlns="http://www.w3.org/2000/svg" viewBox="0 0 1080 1080" style="fill: rgb(0, 0, 0) !important;">
<path fill="#fb9a39" stroke="#fb9a39" d="M724.455 217.455c-3.782 3.782-3.483 10.502.622 13.956 6.711 5.647 16.923 1.477 16.923-6.911 0-8.344-11.592-12.999-17.545-7.045m-177.323 2.623c-17.988 3.535-27.084 20.394-19.248 35.675 3.899 7.604 10.105 11.132 26.211 14.901 15.712 3.678 20.752 8.941 16.477 17.208-4.909 9.491-22.144 8.23-33.568-2.455l-4.682-4.379-4.656 5.736c-5.767 7.104-5.768 7.06.382 12.59 6.985 6.28 14.069 8.79 26.523 9.4 23.449 1.147 35.108-8.454 34.279-28.227-.596-14.232-7.097-20.411-25.85-24.57-14.713-3.263-17.88-4.637-19.758-8.575-5.828-12.222 15.928-18.286 29.731-8.287 4.983 3.61 3.993 3.966 9.055-3.251l4.319-6.156-2.924-2.343c-8.621-6.908-23.231-9.834-36.291-7.267M280.994 248.21c-.008 40.122-1.058 44.367-11.258 45.516-7.801.88-13.201-2.14-18.46-10.322-1.139-1.772-1.572-1.523-6.239 3.596-5.873 6.441-6.023 7.348-2.017 12.209 7.675 9.311 29.539 12.866 41.507 6.749 12.015-6.141 13.73-13.297 13.288-55.458l-.315-30-8.25-.29-8.25-.291-.006 28.291M852 227.183a731.476 731.476 0 0 0-7.75 1.325l-3.25.583V242h-10v13h10v19.386c0 19.229.022 19.428 2.764 24.677 4.039 7.731 9.047 10.201 19.736 9.734 13.495-.59 16.19-3.467 12.125-12.941l-1.563-3.643-4.071 1.402c-4.703 1.62-8.08 1.048-10.667-1.808-1.588-1.752-1.867-4.267-2.157-19.41L856.835 255H876v-13h-18.919l-.291-7.78-.29-7.781-4.5.744m-520.5 15.154c-5.228 1.717-8.185 3.314-12.72 6.868l-3.72 2.916 3.611 5.439c4.248 6.398 3.526 6.178 8.138 2.48 11.421-9.159 27.945-7.293 24.744 2.794-.763 2.402-6.042 4.627-14.639 6.17-11.12 1.996-18.328 6.083-21.509 12.196-3.211 6.172-.962 18.276 4.275 23.012 8.038 7.268 26.172 5.925 31.03-2.299 2.128-3.602 2.391-3.602 4.444.008 2.926 5.143 6.403 6.497 15.846 6.17 5.644-.196 6.274-1.053 5.474-7.455-.659-5.274-.877-5.636-3.389-5.636-4.833 0-5.085-1.037-5.085-20.884 0-22.013-.955-25.247-8.815-29.854-5.506-3.226-20.54-4.272-27.685-1.925m140.445.113c-6.067 2.236-11.345 5.248-13.796 7.875l-2.352 2.52 3.264 4.827c1.795 2.656 3.375 4.975 3.512 5.156.137.18 2.581-1.276 5.43-3.237 11.274-7.754 24.247-7.215 24.247 1.009 0 3.756-3.091 6.033-10.031 7.388-18.011 3.517-24.929 7.588-27.25 16.036-1.492 5.43-.141 13.522 2.992 17.921 6.784 9.527 25.86 9.487 33.34-.07l2.489-3.181 1.622 3.136c2.158 4.173 6.601 6.313 13.109 6.313 8.1 0 9.157-.909 8.514-7.313-.522-5.2-.62-5.342-4.035-5.83l-3.5-.5-.524-19.5c-.667-24.81-2.211-28.702-12.88-32.466-5.317-1.876-19.155-1.924-24.151-.084m147.384.586c-17.03 6.734-24.667 31.66-15.317 49.988 9.929 19.463 41.771 22.002 53.041 4.231 3.92-6.181 3.823-6.569-2.538-10.16-6.82-3.849-6.564-3.87-9.216.775-4.215 7.384-16.012 9.549-21.927 4.024-9.128-8.528-7.757-30.636 2.193-35.358 7.031-3.336 16.982-.819 19.616 4.962 1.498 3.288 1.952 3.206 8.362-1.53 6.369-4.705 6.312-4.488 2.547-9.685-6.171-8.519-24.439-12.12-36.761-7.247m79.997-.988c-2.974.909-6.313 3.796-9.775 8.452-1.382 1.859-1.49 1.629-1.519-3.25L688 242h-16v66h15.766l.44-19.75c.611-27.469 2.777-31.736 15.779-31.079l6.515.329 1.409-6.791c.888-4.285 1.058-7.142.459-7.741-1.445-1.445-9.47-2.012-13.042-.92m86.781.503c-1.866.81-4.904 3.075-6.75 5.032L776 251.142V242h-17v93h17v-34.178l3.25 2.741c12.229 10.312 31.848 6.043 39.237-8.536 6.556-12.939 5.366-34.028-2.537-44.937-5.79-7.994-20.332-11.667-29.843-7.539m-406.101.199c.004.412 5.334 15.15 11.844 32.75l11.838 32 10.005.283 10.005.284 11.567-31.284c6.362-17.206 11.878-32.07 12.258-33.033.625-1.584-.119-1.75-7.844-1.75h-8.535l-1.922 5.25c-1.058 2.887-4.774 13.462-8.259 23.5-3.485 10.038-6.64 18.25-7.012 18.25-.372 0-3.049-6.863-5.948-15.25-2.899-8.387-6.603-18.963-8.231-23.5l-2.961-8.25h-8.406c-4.623 0-8.402.338-8.399.75M723 275v33h17v-66h-17v33m59.898-17.737c-5.125 3.414-7.056 8.267-7.056 17.737 0 16.08 9.631 24.14 21.892 18.322 10.41-4.94 10.29-32.489-.161-36.856-5.139-2.147-10.709-1.845-14.675.797M349 276.472c-1.375.717-5.073 1.833-8.219 2.48-7.789 1.603-10.236 3.739-10.236 8.936 0 5.888 2.979 8.612 9.417 8.612 8.51 0 12.591-5.739 11.853-16.668-.313-4.627-.334-4.653-2.815-3.36m134.5 1.659c-9.395 2.496-11.919 4.477-12.305 9.664-.513 6.898 5.208 10.599 12.845 8.311 5.46-1.636 8.081-5.749 8.718-13.68.59-7.354 1.197-7.073-9.258-4.295M265 368.411c0 7.394 53.17 595.076 53.879 595.514.52.322 54.316 15.392 119.546 33.489l118.6 32.904 119.066-32.909c65.487-18.1 119.447-33.14 119.913-33.422.466-.282 12.587-132.357 26.935-293.5 14.348-161.143 26.359-295.35 26.69-298.237l.601-5.25H557.615C306.38 367 265 367.2 265 368.411M480.012 492.25c.007 1.788 2.455 73.665 5.44 159.727 2.985 86.062 5.334 156.57 5.22 156.684-.193.193-42.838-11.776-43.451-12.196-.154-.105-.985-9.365-1.846-20.578-.861-11.213-1.636-20.441-1.721-20.508-.084-.066-10.646-1.918-23.469-4.115l-23.315-3.995.536 3.615c.295 1.989 2.637 27.691 5.205 57.116 2.567 29.425 4.718 53.545 4.779 53.6.06.055 29.81 8.34 66.11 18.411 36.3 10.072 66.563 18.512 67.25 18.757.997.356 1.25-41.004 1.25-204.661V489h-62l.012 3.25m90.808 24c-.647 35.11-.262 192.642.473 193.376.308.308 21.18-.776 46.383-2.408 25.203-1.633 45.938-2.873 46.077-2.757.216.181-7.324 90.496-8.012 95.959-.209 1.663-5.871 3.338-42.241 12.5l-42 10.58-.262 38.09-.261 38.091 67.679-18.842c37.224-10.363 67.887-19.049 68.14-19.301.429-.43 20.125-217.39 20.179-222.288L727 637h-47c-44.089 0-47.001-.108-47.017-1.75-.049-5.082 3.315-73.812 3.631-74.159.204-.225 22.194-.868 48.867-1.428l48.495-1.017.49-3.073c.742-4.65 5.551-59.602 5.542-63.323L740 489H571.322l-.502 27.25" fill-rule="evenodd" style="fill: rgb(154, 97, 40) !important; stroke: rgb(154, 97, 40) !important;"/>
<path fill="#f38434" stroke="#f38434" d="M265.412 371.75c.695 5.501 52.588 588.098 52.588 590.4 0 1.186 27.209 9.069 119.75 34.696l119.75 33.162 118.906-32.96c65.398-18.128 119.223-33.317 119.611-33.754.388-.437 12.473-133.319 26.856-295.294 14.383-161.975 26.391-295.962 26.685-297.75l.533-3.25H264.812l.6 4.75M557 697.625V979.25l2.75-.551c3.584-.719 190.555-52.67 190.939-53.054.36-.36 45.311-503.349 45.311-507.017V416H557v281.625M479.461 498.25c.982 15.644 10.773 308.849 10.327 309.295-.23.23-9.838-2.273-21.352-5.563-11.514-3.29-20.98-5.982-21.037-5.982-.057 0-.689-9.041-1.405-20.092-1.22-18.83-1.433-20.145-3.398-20.955-3.313-1.367-44.637-8.245-45.335-7.547-.713.713 8.532 108.809 9.619 112.474.656 2.21 5.484 3.71 67.913 21.092L542 899.685V489H478.879l.582 9.25" fill-rule="evenodd" style="fill: rgb(148, 85, 40) !important; stroke: rgb(148, 85, 40) !important;"/>
</svg>